<svg width="1920" height="1095" viewBox="0 0 1920 1095" fill="none" xmlns="http://www.w3.org/2000/svg">
<path fill-rule="evenodd" clip-rule="evenodd" d="M0 0V1095C0 1095 1555.61 917.363 1641.25 908.094C1726.89 898.825 1837.95 898.825 1852.22 706.903L1920 190.599V0H0Z" fill="url(#paint0_linear)"/>
<mask id="mask0" mask-type="alpha" maskUnits="userSpaceOnUse" x="0" y="0" width="1920" height="1095">
<path fill-rule="evenodd" clip-rule="evenodd" d="M0 0V1095C0 1095 1555.61 917.363 1641.25 908.094C1726.89 898.825 1837.95 898.825 1852.22 706.903L1920 190.599V0H0Z" fill="white"/>
</mask>
<g mask="url(#mask0)">
<g opacity="0.5">
<path d="M1660 283.507L1803 313L1796.54 113L1660 283.507Z" fill="#282C39" stroke="#282C39" stroke-width="1.51"/>
<path d="M1797 112.093L1546 -112L1660.43 282L1797 112.093Z" fill="#282C39" stroke="#282C39" stroke-width="1.51"/>
<path d="M1800.42 313L2150 124.06L1794 113L1800.42 313Z" fill="#252934" stroke="#252934" stroke-width="1.51"/>
<path d="M1797 112L1655.81 -363L1546 -112.178L1797 112Z" fill="#262A37" stroke="#262A37" stroke-width="1.51"/>
<path d="M1667 935L1975 745.199L1800.31 314L1667 935Z" fill="#1F222B" stroke="#1F222B" stroke-width="1.51"/>
<path d="M1544.36 -112L1296 282H1658L1544.36 -112Z" fill="#292D3A" stroke="#292D3A" stroke-width="1.51"/>
<path d="M1800 314L2222 262.371L2151.05 125L1800 314Z" fill="#232731" stroke="#232731" stroke-width="1.51"/>
<path d="M2150 124L2130.73 -135L1794 112.979L2150 124Z" fill="#222530" stroke="#222530" stroke-width="1.51"/>
<path d="M1544 -112L1310.64 -106.49L1296 282L1544 -112Z" fill="#272B37" stroke="#272B37" stroke-width="1.51"/>
<path d="M1800 313.479L2177.77 615L2222 262L1800 313.479Z" fill="#20232C" stroke="#20232C" stroke-width="1.51"/>
<path d="M1669.23 933L1803 312.462L1660 283L1669.23 933Z" fill="#242732" stroke="#242732" stroke-width="1.51"/>
<path d="M2134 -136.066L1655 -363L1795.94 112L2134 -136.066Z" fill="#242631" stroke="#242631" stroke-width="1.51"/>
<path d="M1975.17 743L2178 614.667L1800 314L1975.17 743Z" fill="#1F212A" stroke="#1F212A" stroke-width="1.51"/>
<path d="M1296 283L1668 933L1658.81 283H1296Z" fill="#252934" stroke="#252934" stroke-width="1.51"/>
<path d="M1294.93 283L1102 811.47L1667 933L1294.93 283Z" fill="#20232D" stroke="#20232D" stroke-width="1.51"/>
<path d="M973 -37L1050.28 452L1295 283.475L973 -37Z" fill="#272A37" stroke="#272A37" stroke-width="1.51"/>
<path d="M1310 -106L973 -37.0284L1295.27 283L1310 -106Z" fill="#252935" stroke="#252935" stroke-width="1.51"/>
<path d="M1050 451.016L1101.37 810L1294 283L1050 451.016Z" fill="#22252F" stroke="#22252F" stroke-width="1.51"/>
<path d="M1000 831L1103 810.811L1051.04 452L1000 831Z" fill="#1D2029" stroke="#1D2029" stroke-width="1.51"/>
<path d="M729 246L1002.38 830L1053 450.767L729 246Z" fill="#21242E" stroke="#21242E" stroke-width="1.51"/>
<path d="M468 79.1818L727.953 247L975 -37L468 79.1818Z" fill="#282C38" stroke="#282C38" stroke-width="1.51"/>
<path d="M975.682 -37L729 246.638L1053 452L975.682 -37Z" fill="#272A37" stroke="#272A37" stroke-width="1.51"/>
<path d="M388 774L890.649 963L1000 831.801L388 774Z" fill="#22252E" stroke="#22252E" stroke-width="1.51"/>
<path d="M1000.69 831.267L891 963L1103 811L1000.69 831.267Z" fill="#20222B" stroke="#20222B" stroke-width="1.51"/>
<path d="M646.833 -283L468 79L975 -36.7665L646.833 -283Z" fill="#272A37" stroke="#272A37" stroke-width="1.51"/>
<path d="M727.081 246L388 772.151L1000 830L727.081 246Z" fill="#22252F" stroke="#22252F" stroke-width="1.51"/>
<path d="M467.691 79L388 772L726 246.054L467.691 79Z" fill="#2A2D39" stroke="#2A2D39" stroke-width="1.51"/>
</g>
</g>
<defs>
<linearGradient id="paint0_linear" x1="1813.04" y1="0" x2="1813.04" y2="973.001" gradientUnits="userSpaceOnUse">
<stop stop-color="#20232D"/>
<stop offset="1" stop-color="#151720"/>
</linearGradient>
</defs>
</svg>
