<svg width="20" height="20" viewBox="0 0 20 20" fill="none" xmlns="http://www.w3.org/2000/svg">
<g opacity="0.9">
<path fill-rule="evenodd" clip-rule="evenodd" d="M19.8579 9.92885C19.8579 15.4124 15.4126 19.8577 9.92903 19.8577C4.44548 19.8577 0.000183105 15.4124 0.000183105 9.92885C0.000183105 4.4453 4.44548 0 9.92903 0C15.4126 0 19.8579 4.4453 19.8579 9.92885ZM14.6476 7.50885C15.1276 7.45186 15.5853 7.32425 16.0108 7.13558C15.6927 7.6115 15.2904 8.02938 14.8264 8.36389C14.831 8.46549 14.8333 8.56796 14.8333 8.6708C14.8333 11.8073 12.446 15.4235 8.08071 15.4235C6.74054 15.4235 5.49275 15.0308 4.44302 14.3572C4.62832 14.3793 4.81771 14.3904 5.00886 14.3904C6.12107 14.3904 7.14425 14.0112 7.95664 13.3745C6.91788 13.3552 6.0416 12.669 5.73965 11.7264C5.88443 11.754 6.03293 11.7687 6.1862 11.7687C6.40231 11.7687 6.6124 11.7398 6.81133 11.6853C5.72585 11.4674 4.90744 10.5083 4.90744 9.35841C4.90744 9.3485 4.90744 9.33841 4.90762 9.32832C5.22744 9.50655 5.59363 9.61327 5.98248 9.62549C5.34602 9.2 4.92673 8.47327 4.92673 7.65009C4.92673 7.21522 5.0439 6.80726 5.24815 6.45681C6.41877 7.8931 8.16762 8.83788 10.14 8.93681C10.0993 8.76301 10.0782 8.58195 10.0782 8.39593C10.0782 7.08549 11.1411 6.02266 12.4515 6.02266C13.1345 6.02266 13.7513 6.3108 14.1843 6.77186C14.7246 6.66549 15.2327 6.46814 15.6913 6.19611C15.5138 6.75062 15.1377 7.21522 14.6476 7.50885Z" fill="white"/>
</g>
</svg>
